<svg width="70" height="69" viewBox="0 0 70 69" fill="none" xmlns="http://www.w3.org/2000/svg">
<circle cx="34.887" cy="34.456" r="34.2268" fill="#30FF38"/>
<path d="M35 33C33.5792 33 32.2166 32.4732 31.2119 31.5355C30.2073 30.5979 29.6429 29.3261 29.6429 28C29.6429 26.6739 30.2073 25.4021 31.2119 24.4645C32.2166 23.5268 33.5792 23 35 23C36.4208 23 37.7834 23.5268 38.7881 24.4645C39.7927 25.4021 40.3571 26.6739 40.3571 28C40.3571 28.6566 40.2186 29.3068 39.9494 29.9134C39.6801 30.52 39.2855 31.0712 38.7881 31.5355C38.2906 31.9998 37.7 32.3681 37.0501 32.6194C36.4001 32.8707 35.7035 33 35 33ZM35 14C31.0218 14 27.2064 15.475 24.3934 18.1005C21.5804 20.726 20 24.287 20 28C20 38.5 35 54 35 54C35 54 50 38.5 50 28C50 24.287 48.4196 20.726 45.6066 18.1005C42.7936 15.475 38.9782 14 35 14Z" fill="black"/>
</svg>
